<svg width="32" height="32" viewBox="0 0 100 100" fill="none" xmlns="http://www.w3.org/2000/svg">
    <defs>
        <linearGradient id="prismGradient" x1="0%" y1="0%" x2="100%" y2="100%">
            <stop offset="0%" stop-color="#3B82F6" />
            <stop offset="50%" stop-color="#8B5CF6" />
            <stop offset="100%" stop-color="#EC4899" />
        </linearGradient>
        <linearGradient id="eyeGradient" x1="0%" y1="0%" x2="100%" y2="100%">
            <stop offset="0%" stop-color="#60A5FA" />
            <stop offset="100%" stop-color="#3B82F6" />
        </linearGradient>
    </defs>

    <!-- Main Robot Body -->
    <rect x="20" y="35" width="60" height="45" rx="8" ry="8" fill="url(#prismGradient)" stroke="#1E40AF" stroke-width="2"/>
    
    <!-- Robot Head -->
    <rect x="25" y="25" width="50" height="20" rx="10" ry="10" fill="url(#prismGradient)" stroke="#1E40AF" stroke-width="2"/>
    
    <!-- Eyes -->
    <circle cx="35" cy="32" r="6" fill="url(#eyeGradient)" stroke="#1E40AF" stroke-width="1.5"/>
    <circle cx="65" cy="32" r="6" fill="url(#eyeGradient)" stroke="#1E40AF" stroke-width="1.5"/>
    
    <!-- Eye pupils -->
    <circle cx="35" cy="32" r="3" fill="#1E40AF"/>
    <circle cx="65" cy="32" r="3" fill="#1E40AF"/>
    
    <!-- Eye highlights -->
    <circle cx="36" cy="30" r="1.5" fill="#FFFFFF" opacity="0.9"/>
    <circle cx="66" cy="30" r="1.5" fill="#FFFFFF" opacity="0.9"/>
    
    <!-- Body Details -->
    <rect x="30" y="45" width="40" height="3" rx="1.5" fill="#60A5FA" opacity="0.8"/>
    <rect x="30" y="52" width="35" height="2" rx="1" fill="#60A5FA" opacity="0.6"/>
    <rect x="30" y="57" width="30" height="2" rx="1" fill="#60A5FA" opacity="0.6"/>
    
    <!-- Central Prism -->
    <polygon points="50,62 45,70 55,70" fill="#FFFFFF" fill-opacity="0.8" stroke="#3B82F6" stroke-width="1"/>
    
    <!-- Antennae -->
    <line x1="30" y1="25" x2="28" y2="18" stroke="#8B5CF6" stroke-width="2" stroke-linecap="round"/>
    <line x1="70" y1="25" x2="72" y2="18" stroke="#8B5CF6" stroke-width="2" stroke-linecap="round"/>
    <circle cx="28" cy="18" r="2" fill="#EC4899"/>
    <circle cx="72" cy="18" r="2" fill="#EC4899"/>
    
    <!-- Base -->
    <rect x="15" y="80" width="70" height="8" rx="4" fill="#374151"/>
    <rect x="18" y="82" width="8" height="4" rx="2" fill="#6B7280"/>
    <rect x="30" y="82" width="8" height="4" rx="2" fill="#6B7280"/>
    <rect x="42" y="82" width="8" height="4" rx="2" fill="#6B7280"/>
    <rect x="54" y="82" width="8" height="4" rx="2" fill="#6B7280"/>
    <rect x="66" y="82" width="8" height="4" rx="2" fill="#6B7280"/>
    <rect x="74" y="82" width="8" height="4" rx="2" fill="#6B7280"/>
</svg>